<?xml version="1.0" encoding="UTF-8" standalone="no"?>
<!-- Created with Inkscape (http://www.inkscape.org/) -->

<svg
   version="1.1"
   id="svg1"
   width="173.53067"
   height="116.476"
   viewBox="0 0 173.53067 116.476"
   sodipodi:docname="autG_timed_system.svg"
   inkscape:version="1.3.2 (091e20e, 2023-11-25, custom)"
   xmlns:inkscape="http://www.inkscape.org/namespaces/inkscape"
   xmlns:sodipodi="http://sodipodi.sourceforge.net/DTD/sodipodi-0.dtd"
   xmlns="http://www.w3.org/2000/svg"
   xmlns:svg="http://www.w3.org/2000/svg">
  <defs
     id="defs1" />
  <sodipodi:namedview
     id="namedview1"
     pagecolor="#ffffff"
     bordercolor="#000000"
     borderopacity="0.25"
     inkscape:showpageshadow="2"
     inkscape:pageopacity="0.0"
     inkscape:pagecheckerboard="0"
     inkscape:deskcolor="#d1d1d1"
     inkscape:zoom="7.5895466"
     inkscape:cx="86.829956"
     inkscape:cy="58.237998"
     inkscape:window-width="1920"
     inkscape:window-height="1122"
     inkscape:window-x="-8"
     inkscape:window-y="-8"
     inkscape:window-maximized="1"
     inkscape:current-layer="g1">
    <inkscape:page
       x="0"
       y="0"
       inkscape:label="1"
       id="page1"
       width="173.53067"
       height="116.476"
       margin="0"
       bleed="0" />
  </sodipodi:namedview>
  <g
     id="g1"
     inkscape:groupmode="layer"
     inkscape:label="1">
    <g
       id="g2"
       aria-label="tr&#10;1"
       transform="matrix(1.3333333,0,0,1.3333333,64.258667,33.112)">
      <path
         id="path2"
         d="m 3.0110781,-3.9482578 h 0.796875 c 0.1640625,0 0.3398438,0 0.3398438,-0.2929688 0,-0.1757812 -0.1757813,-0.1757812 -0.3164063,-0.1757812 h -0.703125 c 0.09375,-0.4335938 0.1289063,-0.5625 0.1875,-0.796875 0.070312,-0.2578125 0.1757813,-0.6914063 0.1757813,-0.7734375 0,-0.2226563 -0.1640625,-0.421875 -0.4453125,-0.421875 -0.1289063,0 -0.5039063,0.070312 -0.6210938,0.5273437 L 2.0618594,-4.4170078 H 1.2532656 c -0.1757812,0 -0.35156247,0 -0.35156247,0.28125 0,0.1875 0.17578127,0.1875 0.32812497,0.1875 h 0.7148438 l -0.703125,2.7773437 c -0.035156,0.1523438 -0.035156,0.22265629 -0.035156,0.28125004 0,0.6328125 0.5625,0.97265625 1.1601563,0.97265625 1.1484375,0 1.8046875,-1.38281249 1.8046875,-1.55859379 0,-0.140625 -0.1289063,-0.140625 -0.28125,-0.140625 -0.2109375,0 -0.2226563,0.011719 -0.3046875,0.1757813 -0.421875,0.98437499 -0.9023438,1.16015624 -1.1601563,1.16015624 -0.09375,0 -0.2109375,-0.0117188 -0.2109375,-0.3046875 0,-0.1875 0.011719,-0.26953125 0.058594,-0.43359374 z m 3.9169922,0.7851562 c 0.058594,-0.234375 0.515625,-0.984375 1.2070313,-0.984375 0.1171875,0 0.3515625,0.011719 0.5507812,0.1757813 -0.4570312,0.2109375 -0.46875,0.6210937 -0.46875,0.6679687 0,0.2460938 0.1875,0.4570313 0.5039063,0.4570313 0.375,0 0.7148437,-0.3164063 0.7148437,-0.7734375 0,-0.5273438 -0.5390625,-0.8789063 -1.265625,-0.8789063 -0.3867187,0 -0.84375,0.1054688 -1.2773437,0.5390625 -0.1640625,-0.3164062 -0.5625,-0.5390625 -1.0546875,-0.5390625 -0.46875,0 -0.7148438,0.3398438 -0.84375,0.5390625 -0.2578125,0.4101563 -0.3984375,0.9726563 -0.3984375,1.0078125 0,0.140625 0.140625,0.140625 0.28125,0.140625 0.2460937,0 0.2578125,-0.011719 0.3164062,-0.2578125 0.082031,-0.328125 0.2695313,-1.078125 0.5976563,-1.078125 0.1289062,0 0.1992187,0.082031 0.1992187,0.3164063 0,0.1875 -0.023437,0.2695312 -0.058594,0.421875 l -0.7148438,2.84765624 c -0.035156,0.140625 -0.035156,0.1640625 -0.035156,0.2109375 0,0.31640625 0.234375,0.43359375 0.4453125,0.43359375 0.070312,0 0.5039062,-0.0234375 0.6328125,-0.5390625 z m 0,0"
         style="fill:#000000;fill-opacity:1;fill-rule:nonzero;stroke:none" />
      <path
         id="path3"
         d="m 11.167328,-2.9345859 c 0,-0.1875 -0.01172,-0.1992188 -0.210937,-0.1992188 -0.445313,0.4335938 -1.0781254,0.4453125 -1.3593754,0.4453125 v 0.2460938 c 0.1640625,0 0.6210934,0 1.0078124,-0.1875 v 3.55078121 c 0,0.23437499 0,0.32812499 -0.6914061,0.32812499 H 9.6438906 v 0.2460938 c 0.1289063,-0.011719 0.9843754,-0.023437 1.2421874,-0.023437 0.210938,0 1.089844,0.011719 1.242188,0.023437 V 1.2490078 h -0.257813 c -0.703125,0 -0.703125,-0.09375 -0.703125,-0.32812499 z m 0,0"
         style="fill:#000000;fill-opacity:1;fill-rule:nonzero;stroke:none" />
    </g>
    <g
       id="g3"
       aria-label="tr&#10;2"
       transform="matrix(1.3333333,0,0,1.3333333,64.258667,88.86)">
      <path
         id="path4"
         d="m 3.0110781,-3.9496875 h 0.796875 c 0.1640625,0 0.3398438,0 0.3398438,-0.2929688 0,-0.1757812 -0.1757813,-0.1757812 -0.3164063,-0.1757812 h -0.703125 c 0.09375,-0.4335938 0.1289063,-0.5625 0.1875,-0.796875 0.070312,-0.2578125 0.1757813,-0.6914063 0.1757813,-0.7734375 0,-0.2226563 -0.1640625,-0.421875 -0.4453125,-0.421875 -0.1289063,0 -0.5039063,0.070312 -0.6210938,0.5273437 L 2.0618594,-4.4184375 H 1.2532656 c -0.1757812,0 -0.35156247,0 -0.35156247,0.28125 0,0.1875 0.17578127,0.1875 0.32812497,0.1875 h 0.7148438 l -0.703125,2.7773437 c -0.035156,0.1523438 -0.035156,0.2226563 -0.035156,0.28125005 0,0.6328125 0.5625,0.97265625 1.1601563,0.97265625 1.1484375,0 1.8046875,-1.3828125 1.8046875,-1.5585938 0,-0.140625 -0.1289063,-0.140625 -0.28125,-0.140625 -0.2109375,0 -0.2226563,0.011719 -0.3046875,0.1757813 -0.421875,0.984375 -0.9023438,1.16015625 -1.1601563,1.16015625 -0.09375,0 -0.2109375,-0.0117188 -0.2109375,-0.3046875 0,-0.1875 0.011719,-0.26953125 0.058594,-0.43359375 z m 3.9169922,0.7851562 c 0.058594,-0.234375 0.515625,-0.984375 1.2070313,-0.984375 0.1171875,0 0.3515625,0.011719 0.5507812,0.1757813 -0.4570312,0.2109375 -0.46875,0.6210937 -0.46875,0.6679687 0,0.2460938 0.1875,0.4570313 0.5039063,0.4570313 0.375,0 0.7148437,-0.3164063 0.7148437,-0.7734375 0,-0.5273438 -0.5390625,-0.8789063 -1.265625,-0.8789063 -0.3867187,0 -0.84375,0.1054688 -1.2773437,0.5390625 -0.1640625,-0.3164062 -0.5625,-0.5390625 -1.0546875,-0.5390625 -0.46875,0 -0.7148438,0.3398438 -0.84375,0.5390625 -0.2578125,0.4101563 -0.3984375,0.9726563 -0.3984375,1.0078125 0,0.140625 0.140625,0.140625 0.28125,0.140625 0.2460937,0 0.2578125,-0.011719 0.3164062,-0.2578125 0.082031,-0.328125 0.2695313,-1.078125 0.5976563,-1.078125 0.1289062,0 0.1992187,0.082031 0.1992187,0.3164063 0,0.1875 -0.023437,0.2695312 -0.058594,0.421875 l -0.7148438,2.84765625 c -0.035156,0.140625 -0.035156,0.1640625 -0.035156,0.2109375 0,0.31640625 0.234375,0.43359375 0.4453125,0.43359375 0.070312,0 0.5039062,-0.0234375 0.6328125,-0.5390625 z m 0,0"
         style="fill:#000000;fill-opacity:1;fill-rule:nonzero;stroke:none" />
      <path
         id="path5"
         d="m 12.350922,0.22804687 h -0.234375 c -0.02344,0.15234375 -0.08203,0.5625 -0.175781,0.6328125 -0.05859,0.0351563 -0.597657,0.0351563 -0.691407,0.0351563 H 9.9602969 c 0.7382811,-0.64453125 0.9843751,-0.84375 1.3945311,-1.171875 0.515625,-0.41015625 0.996094,-0.84374997 0.996094,-1.50000007 0,-0.84375 -0.738281,-1.359375 -1.628906,-1.359375 -0.8671879,0 -1.4531254,0.609375 -1.4531254,1.2421875 0,0.3632813 0.3046875,0.3984375 0.375,0.3984375 0.1640625,0 0.3750004,-0.1171875 0.3750004,-0.375 0,-0.1289062 -0.058594,-0.3632812 -0.4218754,-0.3632812 0.2226563,-0.5039063 0.6914064,-0.65625 1.0195314,-0.65625 0.703125,0 1.066406,0.5507812 1.066406,1.1132813 0,0.609375 -0.433594,1.08984372 -0.65625,1.33593747 L 9.3392031,1.2241406 c -0.070312,0.058594 -0.070312,0.070312 -0.070312,0.2695313 h 2.8828129 z m 0,0"
         style="fill:#000000;fill-opacity:1;fill-rule:nonzero;stroke:none" />
    </g>
    <g
       id="g5"
       aria-label="In?&#10;{cl}"
       transform="matrix(1.3333333,0,0,1.3333333,94.454667,22.262667)">
      <path
         id="path6"
         d="m 3.8543125,-6.0827422 c 0.082031,-0.328125 0.140625,-0.4101562 0.8320312,-0.4101562 0.1992188,0 0.3046875,0 0.3046875,-0.1875 0,-0.1289063 -0.1054687,-0.1289063 -0.140625,-0.1289063 -0.3984375,0 -0.8203125,0.035156 -1.2304687,0.035156 -0.3984375,0 -0.8320313,-0.035156 -1.2421875,-0.035156 -0.070312,0 -0.1875,0 -0.1875,0.1875 0,0.1289063 0.070312,0.1289063 0.2695312,0.1289063 0.3398438,0 0.6328125,0 0.6328125,0.1640625 0,0.035156 -0.023437,0.1640625 -0.035156,0.1875 l -1.359375,5.42578121 C 1.62775,-0.38742969 1.534,-0.30539844 0.86603125,-0.30539844 c -0.2109375,0 -0.3046875,0 -0.3046875,0.17578125 0,0.10546875 0.0703125,0.1289062525 0.140625,0.1289062525 0.39843745,0 0.82031245,-0.0351562525 1.23046875,-0.0351562525 0.4101562,0 0.8320312,0.0351562525 1.2304687,0.0351562525 0.070312,0 0.1992188,0 0.1992188,-0.1875000025 0,-0.1171875 -0.070312,-0.1171875 -0.2695313,-0.1171875 -0.6210937,0 -0.6210937,-0.0703125 -0.6210937,-0.1875 0,-0.0117188 0,-0.0703125 0.035156,-0.2109375 z m 2.2851562,4.3359375 c 0.046875,-0.2109375 0.1054688,-0.421875 0.1523438,-0.6445312 0.1289062,-0.5039063 0.1289062,-0.515625 0.3046875,-0.8085938 0.140625,-0.234375 0.5859375,-0.984375 1.3359375,-0.984375 0.4453125,0 0.4570312,0.4453125 0.4570312,0.65625 0,0.6210938 -0.4335937,1.8046875 -0.5742187,2.203125 -0.1289063,0.33984376 -0.1523438,0.42187501 -0.1523438,0.63281251 0,0.4453125 0.2695313,0.796875 0.75,0.796875 0.9257813,0 1.265625,-1.47656251 1.265625,-1.53515621 0,-0.09375 -0.082031,-0.09375 -0.1523437,-0.09375 -0.1289063,0 -0.1289063,0.023437 -0.1640625,0.1640625 -0.082031,0.2695312 -0.3515625,1.25390621 -0.9257813,1.25390621 -0.2109375,0 -0.2226562,-0.15234375 -0.2226562,-0.29296875 0,-0.24609375 0.1054687,-0.50390625 0.1757812,-0.74999996 0.1992188,-0.5273438 0.609375,-1.640625 0.609375,-2.2148438 0,-0.8203125 -0.5390625,-1.0429687 -1.03125,-1.0429687 -0.8203125,0 -1.3007812,0.5976562 -1.4296875,0.7851562 -0.070312,-0.4804687 -0.3984375,-0.7851562 -0.8320312,-0.7851562 -0.3632813,0 -0.5625,0.234375 -0.7148438,0.5273437 -0.1875,0.3984375 -0.3164062,0.984375 -0.3164062,1.0078125 0,0.1054688 0.09375,0.1054688 0.140625,0.1054688 0.1289062,0 0.140625,-0.011719 0.1875,-0.234375 0.1875,-0.6914063 0.375,-1.1835938 0.6796875,-1.1835938 0.2578125,0 0.2578125,0.2929688 0.2578125,0.3984375 0,0.1640625 -0.023437,0.3515625 -0.070312,0.5039063 l -0.7382813,2.98828121 c -0.023437,0.0585938 -0.035156,0.1171875 -0.035156,0.140625 0,0.1171875 0.082031,0.2578125 0.28125,0.2578125 0.1171875,0 0.2929687,-0.0703125 0.3632812,-0.2578125 z m 0,0"
         style="fill:#000000;fill-opacity:1;fill-rule:nonzero;stroke:none" />
      <path
         id="path7"
         d="m 12.549625,-2.4850859 c 0,-1.2539063 0.960937,-1.9570313 1.3125,-2.2148438 0.269531,-0.1992187 0.480469,-0.5625 0.480469,-0.984375 0,-0.5742187 -0.398438,-1.3359375 -1.886719,-1.3359375 -1.078125,0 -1.6875,0.6796875 -1.6875,1.3242188 0,0.3398437 0.222656,0.4804687 0.457031,0.4804687 0.28125,0 0.457031,-0.1992187 0.457031,-0.46875 0,-0.4453125 -0.421875,-0.4453125 -0.5625,-0.4453125 0.316407,-0.5273437 0.890625,-0.6796875 1.3125,-0.6796875 1.078125,0 1.078125,0.6796875 1.078125,1.0664063 0,0.5976562 -0.152343,0.7734375 -0.339843,0.9492187 -0.65625,0.7148438 -0.867188,1.640625 -0.867188,2.2382813 v 0.4570312 c 0,0.1757813 0,0.234375 0.117188,0.234375 0.128906,0 0.128906,-0.09375 0.128906,-0.2695312 z m 0.398437,1.95703121 c 0,-0.29296875 -0.246093,-0.52734371 -0.527343,-0.52734371 -0.292969,0 -0.527344,0.23437496 -0.527344,0.52734371 0,0.29296875 0.234375,0.5273437525 0.527344,0.5273437525 0.28125,0 0.527343,-0.2343750025 0.527343,-0.5273437525 z m 0,0"
         style="fill:#000000;fill-opacity:1;fill-rule:nonzero;stroke:none" />
      <path
         id="path8"
         d="m -0.10076563,8.2053437 c 0,-0.3984375 0.2578125,-1.0429687 1.33593753,-1.1132812 0.058594,-0.011719 0.09375,-0.046875 0.09375,-0.1054688 0,-0.1171875 -0.082031,-0.1171875 -0.1875,-0.1171875 -0.99609378,0 -1.91015628,0.515625 -1.91015628,1.2539063 V 10.39675 c 0,0.386719 0,0.703125 -0.39843752,1.03125 -0.3515625,0.292969 -0.7265625,0.304687 -0.9492187,0.316406 -0.046875,0.01172 -0.09375,0.04687 -0.09375,0.105469 0,0.105469 0.058594,0.105469 0.1640625,0.117187 0.65625,0.03516 1.13671872,0.398438 1.24218747,0.878907 0.0351563,0.117187 0.0351563,0.140625 0.0351563,0.492187 v 1.96875 c 0,0.421875 0,0.738281 0.46875,1.125 0.3984375,0.292969 1.0546875,0.410156 1.44140633,0.410156 0.1054687,0 0.1875,0 0.1875,-0.117187 0,-0.09375 -0.058594,-0.09375 -0.1640625,-0.105469 -0.62109383,-0.04687 -1.11328133,-0.363281 -1.24218758,-0.867187 -0.0234375,-0.09375 -0.0234375,-0.105469 -0.0234375,-0.46875 v -2.097657 c 0,-0.457031 -0.0820313,-0.621093 -0.3984375,-0.9375 -0.2109375,-0.210937 -0.50390622,-0.316406 -0.78515622,-0.398437 0.82031247,-0.222656 1.18359372,-0.679688 1.18359372,-1.253906 z m 0,0"
         style="fill:#000000;fill-opacity:1;fill-rule:nonzero;stroke:none" />
      <path
         id="path9"
         d="m 7.6658359,10.560812 c -0.1640625,0 -0.3046875,0 -0.4453125,0.140625 -0.1523437,0.152344 -0.1757812,0.316407 -0.1757812,0.386719 0,0.234375 0.1757812,0.351563 0.3632812,0.351563 0.2929688,0 0.5625,-0.246094 0.5625,-0.644532 0,-0.480468 -0.46875,-0.8554683 -1.171875,-0.8554683 -1.3476562,0 -2.671875,1.4296873 -2.671875,2.8359373 0,0.890625 0.5742188,1.675781 1.6171875,1.675781 1.4179688,0 2.2617188,-1.054687 2.2617188,-1.171875 0,-0.05859 -0.070312,-0.128906 -0.1289063,-0.128906 -0.046875,0 -0.070312,0.02344 -0.1289062,0.09375 -0.7851563,0.996094 -1.875,0.996094 -1.9921875,0.996094 -0.6210938,0 -0.890625,-0.492188 -0.890625,-1.089844 0,-0.410156 0.1992187,-1.371094 0.5390625,-1.992187 0.3046875,-0.5625 0.8554687,-0.996094 1.40625,-0.996094 0.328125,0 0.7148437,0.128906 0.8554687,0.398437 z M 10.595523,7.537375 c 0,0 0,-0.1054688 -0.128906,-0.1054688 -0.222656,0 -0.9492186,0.082031 -1.2070311,0.1054688 -0.082031,0 -0.1992187,0.011719 -0.1992187,0.1992187 0,0.1171875 0.1054687,0.1171875 0.2578125,0.1171875 0.46875,0 0.4804687,0.082031 0.4804687,0.1640625 L 9.7752109,8.2170625 8.5213047,13.197531 c -0.035156,0.117188 -0.058594,0.1875 -0.058594,0.339844 0,0.574219 0.4453125,0.914062 0.9140625,0.914062 0.328125,0 0.5742188,-0.199218 0.7499998,-0.550781 0.175782,-0.386719 0.292969,-0.960937 0.292969,-0.984375 0,-0.09375 -0.09375,-0.09375 -0.117187,-0.09375 -0.105469,0 -0.117188,0.03516 -0.140625,0.175781 -0.1757818,0.644532 -0.3632818,1.242188 -0.7617193,1.242188 -0.2929687,0 -0.2929687,-0.328125 -0.2929687,-0.457031 0,-0.246094 0.011719,-0.292969 0.058594,-0.480469 z m 0,0"
         style="fill:#000000;fill-opacity:1;fill-rule:nonzero;stroke:none" />
      <path
         id="path10"
         d="m 15.013492,15.506125 c 0,0.398437 -0.257812,1.042969 -1.347656,1.113281 -0.04687,0.01172 -0.09375,0.04687 -0.09375,0.105469 0,0.117187 0.117187,0.117187 0.199219,0.117187 0.972656,0 1.898437,-0.492187 1.910156,-1.253906 v -2.273437 c 0,-0.386719 0,-0.703125 0.398437,-1.03125 0.339844,-0.292969 0.726563,-0.304688 0.9375,-0.316407 0.05859,-0.01172 0.09375,-0.04687 0.09375,-0.117187 0,-0.09375 -0.05859,-0.09375 -0.164062,-0.105469 -0.65625,-0.03516 -1.136719,-0.398437 -1.242188,-0.890625 -0.02344,-0.105469 -0.02344,-0.128906 -0.02344,-0.480469 V 8.4045625 c 0,-0.421875 0,-0.7382813 -0.480469,-1.125 -0.398437,-0.3046875 -1.089844,-0.4101563 -1.429687,-0.4101563 -0.08203,0 -0.199219,0 -0.199219,0.1171875 0,0.09375 0.05859,0.09375 0.164062,0.1054688 0.621094,0.046875 1.113282,0.3632812 1.242188,0.8671875 0.03516,0.09375 0.03516,0.1054687 0.03516,0.46875 v 2.097656 c 0,0.457031 0.07031,0.621094 0.398438,0.9375 0.199218,0.210938 0.492187,0.316406 0.773437,0.386719 -0.820312,0.234375 -1.171875,0.691406 -1.171875,1.265625 z m 0,0"
         style="fill:#000000;fill-opacity:1;fill-rule:nonzero;stroke:none" />
    </g>
    <g
       id="g10"
       aria-label="Out!&#10;cl≤5"
       transform="matrix(1.3333333,0,0,1.3333333,94.008,82.736)">
      <path
         id="path11"
         d="m 7.8514219,-4.4191875 c 0,-1.640625 -1.0195313,-2.6015625 -2.2734375,-2.6015625 -2.0390625,0 -4.1015625,2.3554687 -4.1015625,4.6640625 0,1.51171875 0.9375,2.578125 2.2851562,2.578125 1.9921875,0 4.0898438,-2.25 4.0898438,-4.640625 z M 3.8318906,-0.036375 c -0.9023437,0 -1.4648437,-0.8203125 -1.4648437,-2.0039063 0,-0.4570312 0.140625,-1.8515625 0.84375,-3.0703125 0.5273437,-0.9375 1.4296875,-1.6640625 2.296875,-1.6640625 0.7734375,0 1.5,0.5976563 1.5,1.9335938 0,0.8789062 -0.3632813,2.203125 -0.890625,3.1054687 C 5.4725156,-0.63403125 4.5818906,-0.036375 3.8318906,-0.036375 Z M 12.74693,-3.8918438 c 0.02344,-0.058594 0.03516,-0.1171875 0.03516,-0.140625 0,-0.1171875 -0.08203,-0.2578125 -0.28125,-0.2578125 -0.304688,0 -0.375,0.28125 -0.386719,0.3632813 l -0.726562,2.90625 c -0.05859,0.1875 -0.05859,0.19921875 -0.140625,0.328125 -0.1875,0.28125 -0.480469,0.5859375 -0.914063,0.5859375 -0.4570311,0 -0.5390623,-0.4453125 -0.5390623,-0.7734375 0,-0.609375 0.3281253,-1.5 0.5742183,-2.1796875 0.08203,-0.2109375 0.128907,-0.3515625 0.128907,-0.5390625 0,-0.4921875 -0.328125,-0.8085938 -0.7617191,-0.8085938 -0.9257812,0 -1.265625,1.4765625 -1.265625,1.5351563 0,0.1054687 0.09375,0.1054687 0.140625,0.1054687 0.1289063,0 0.140625,-0.023437 0.1875,-0.1640625 0.070312,-0.3046875 0.3398438,-1.2539062 0.9257813,-1.2539062 0.1054687,0 0.2109375,0.035156 0.2109375,0.2929687 0,0.234375 -0.09375,0.5039063 -0.234375,0.890625 -0.2578125,0.703125 -0.515625,1.4414063 -0.515625,1.9570313 0,0.8671875 0.5742187,1.1484375 1.1132813,1.1484375 0.527344,0 0.867187,-0.29296875 1.101562,-0.59765625 0.1875,0.5390625 0.609375,0.59765625 0.796875,0.59765625 0.375,0 0.585938,-0.24609375 0.726563,-0.55078125 0.1875,-0.38671875 0.304687,-0.96093755 0.304687,-0.98437505 0,-0.09375 -0.08203,-0.09375 -0.152343,-0.09375 -0.117188,0 -0.128907,0.011719 -0.1875,0.2226563 -0.140625,0.5625 -0.328125,1.1953125 -0.667969,1.1953125 -0.257813,0 -0.257813,-0.26953125 -0.257813,-0.41015625 0,-0.0703125 0,-0.234375 0.07031,-0.51562505 z m 2.827148,-0.09375 h 0.84375 c 0.175781,0 0.28125,0 0.28125,-0.1875 0,-0.1171875 -0.09375,-0.1171875 -0.246094,-0.1171875 h -0.796875 l 0.363282,-1.4765625 c 0.04687,-0.140625 0.04687,-0.1640625 0.04687,-0.2109375 0,-0.2109375 -0.175782,-0.2578125 -0.269532,-0.2578125 -0.257812,0 -0.351562,0.2109375 -0.386718,0.3515625 l -0.398438,1.59375 h -0.84375 c -0.164062,0 -0.28125,0 -0.28125,0.1875 0,0.1171875 0.09375,0.1171875 0.257813,0.1171875 h 0.796875 l -0.726563,2.859375 c 0,0.035156 -0.04687,0.1992188 -0.04687,0.3398438 0,0.4921875 0.328125,0.890625 0.84375,0.890625 1.007813,0 1.523438,-1.4765625 1.523438,-1.5351563 0,-0.09375 -0.08203,-0.09375 -0.152344,-0.09375 -0.117188,0 -0.117188,0.011719 -0.199219,0.1875 -0.175781,0.4804688 -0.574219,1.2304688 -1.148437,1.2304688 -0.269532,0 -0.269532,-0.2578125 -0.269532,-0.41015625 0,-0.0703125 0,-0.234375 0.07031,-0.51562505 z m 0,0"
         style="fill:#000000;fill-opacity:1;fill-rule:nonzero;stroke:none" />
      <path
         id="path12"
         d="m 18.761578,-2.0871563 0.386719,-4.5351562 c 0,-0.328125 -0.269531,-0.515625 -0.527344,-0.515625 -0.257812,0 -0.527344,0.1875 -0.527344,0.515625 l 0.386719,4.5234375 c 0.01172,0.1523437 0.02344,0.234375 0.140625,0.234375 0.105469,0 0.128906,-0.046875 0.140625,-0.2226563 z m 0.386719,1.5585938 c 0,-0.29296875 -0.234375,-0.5273438 -0.527344,-0.5273438 -0.28125,0 -0.527344,0.23437505 -0.527344,0.5273438 0,0.29296875 0.246094,0.52734375 0.527344,0.52734375 0.292969,0 0.527344,-0.234375 0.527344,-0.52734375 z m 0,0"
         style="fill:#000000;fill-opacity:1;fill-rule:nonzero;stroke:none" />
      <path
         id="path13"
         d="m 2.7391172,10.560305 c -0.1640625,0 -0.3046875,0 -0.4453125,0.140625 -0.1523438,0.152343 -0.1757813,0.316406 -0.1757813,0.386718 0,0.234375 0.1757813,0.351563 0.3632813,0.351563 0.2929687,0 0.5625,-0.246094 0.5625,-0.644531 0,-0.480469 -0.46875,-0.8554691 -1.171875,-0.8554691 -1.34765626,0 -2.67187501,1.4296871 -2.67187501,2.8359371 0,0.890625 0.57421875,1.675782 1.6171875,1.675782 1.41796871,0 2.26171871,-1.054688 2.26171871,-1.171875 0,-0.05859 -0.070312,-0.128907 -0.1289062,-0.128907 -0.046875,0 -0.070312,0.02344 -0.1289063,0.09375 -0.7851562,0.996094 -1.87499996,0.996094 -1.99218746,0.996094 -0.62109375,0 -0.890625,-0.492187 -0.890625,-1.089844 0,-0.410156 0.19921875,-1.371093 0.5390625,-1.992187 0.3046875,-0.5625 0.85546876,-0.996094 1.40624996,-0.996094 0.328125,0 0.7148438,0.128906 0.8554688,0.398438 z M 5.6688047,7.5368672 c 0,0 0,-0.1054688 -0.1289063,-0.1054688 -0.2226562,0 -0.9492187,0.082031 -1.2070312,0.1054688 -0.082031,0 -0.1992188,0.011719 -0.1992188,0.1992187 0,0.1171875 0.1054688,0.1171875 0.2578125,0.1171875 0.46875,0 0.4804688,0.082031 0.4804688,0.1640625 L 4.8484922,8.2165547 3.5945859,13.197023 c -0.035156,0.117188 -0.058594,0.1875 -0.058594,0.339844 0,0.574219 0.4453125,0.914063 0.9140625,0.914063 0.328125,0 0.5742187,-0.199219 0.75,-0.550782 0.1757812,-0.386718 0.2929687,-0.960937 0.2929687,-0.984375 0,-0.09375 -0.09375,-0.09375 -0.1171875,-0.09375 -0.1054687,0 -0.1171875,0.03516 -0.140625,0.175782 -0.1757812,0.644531 -0.3632812,1.242187 -0.7617187,1.242187 -0.2929688,0 -0.2929688,-0.328125 -0.2929688,-0.457031 0,-0.246094 0.011719,-0.292969 0.058594,-0.480469 z m 0,0"
         style="fill:#000000;fill-opacity:1;fill-rule:nonzero;stroke:none" />
      <path
         id="path14"
         d="m 14.103375,8.4274922 c 0.105469,-0.046875 0.1875,-0.09375 0.1875,-0.2226563 0,-0.1054687 -0.08203,-0.1992187 -0.199219,-0.1992187 -0.04687,0 -0.140625,0.046875 -0.175781,0.058594 L 8.4080625,10.665773 c -0.1757812,0.08203 -0.1992187,0.152344 -0.1992187,0.234375 0,0.09375 0.058594,0.152344 0.1992187,0.222657 l 5.5078125,2.589843 c 0.128906,0.07031 0.140625,0.07031 0.175781,0.07031 0.105469,0 0.199219,-0.09375 0.199219,-0.199219 0,-0.09375 -0.03516,-0.152344 -0.210937,-0.234375 L 8.8768125,10.900148 Z m -0.164062,7.2773438 c 0.175781,0 0.351562,0 0.351562,-0.199219 0,-0.199219 -0.210937,-0.199219 -0.363281,-0.199219 H 8.5604063 c -0.1523438,0 -0.3515625,0 -0.3515625,0.199219 0,0.199219 0.1757812,0.199219 0.3398437,0.199219 z m 0,0"
         style="fill:#000000;fill-opacity:1;fill-rule:nonzero;stroke:none" />
      <path
         id="path15"
         d="m 20.70982,12.341555 c 0,-1.183594 -0.820312,-2.179688 -1.898437,-2.179688 -0.480469,0 -0.902344,0.164063 -1.265625,0.503906 V 8.7321797 c 0.199219,0.058594 0.527344,0.1289062 0.84375,0.1289062 1.230469,0 1.933594,-0.9140625 1.933594,-1.0429687 0,-0.058594 -0.03516,-0.1054688 -0.105469,-0.1054688 -0.01172,0 -0.03516,0 -0.08203,0.023437 -0.199219,0.09375 -0.679688,0.2929688 -1.347657,0.2929688 -0.398437,0 -0.855468,-0.070312 -1.324218,-0.28125 -0.08203,-0.023437 -0.105469,-0.023437 -0.128907,-0.023437 -0.09375,0 -0.09375,0.082031 -0.09375,0.234375 v 2.9531248 c 0,0.175781 0,0.257813 0.140625,0.257813 0.07031,0 0.08203,-0.03516 0.128907,-0.09375 0.105468,-0.152344 0.480468,-0.691407 1.277343,-0.691407 0.527344,0 0.773438,0.457032 0.855469,0.632813 0.152344,0.375 0.175781,0.761719 0.175781,1.253906 0,0.351563 0,0.949219 -0.234375,1.371094 -0.246093,0.386719 -0.609375,0.644531 -1.066406,0.644531 -0.726562,0 -1.300781,-0.527344 -1.464844,-1.113281 0.02344,0.01172 0.05859,0.01172 0.164063,0.01172 0.328125,0 0.503906,-0.246094 0.503906,-0.480469 0,-0.246094 -0.175781,-0.492188 -0.503906,-0.492188 -0.140625,0 -0.480469,0.07031 -0.480469,0.527344 0,0.855469 0.679688,1.828125 1.792969,1.828125 1.160156,0 2.179687,-0.960937 2.179687,-2.226562 z m 0,0"
         style="fill:#000000;fill-opacity:1;fill-rule:nonzero;stroke:none" />
    </g>
    <path
       id="path16"
       d="M -7.47208,665.76465 H 7.47207 V 680.7088 H -7.47208 Z"
       style="fill:#f2f2f2;fill-opacity:1;fill-rule:nonzero;stroke:#000000;stroke-width:0.85039;stroke-linecap:butt;stroke-linejoin:miter;stroke-miterlimit:10;stroke-dasharray:none;stroke-opacity:1"
       transform="matrix(1.3333333,0,0,-1.3333333,39.972,949.26133)" />
    <g
       id="g16"
       aria-label="q&#10;0"
       transform="matrix(1.3333333,0,0,1.3333333,34.026667,53.192)">
      <path
         id="path17"
         d="m 4.5005078,-4.2895078 c 0,-0.046875 -0.023437,-0.1054688 -0.09375,-0.1054688 -0.1171875,0 -0.515625,0.3984375 -0.6796875,0.6914063 -0.2226562,-0.5390625 -0.609375,-0.703125 -0.9257812,-0.703125 -1.171875,0 -2.40234379,1.4765625 -2.40234379,2.9179687 0,0.98437504 0.5859375,1.59375004 1.31249999,1.59375004 0.4335938,0 0.8203125,-0.234375 1.1835938,-0.59765625 -0.09375,0.3515625 -0.421875,1.69921871 -0.4570313,1.79296871 -0.082031,0.2695313 -0.1523437,0.3164063 -0.7148437,0.328125 -0.1289063,0 -0.2226563,0 -0.2226563,0.1992188 0,0 0,0.1054687 0.1289063,0.1054687 0.3164062,0 0.6679687,-0.035156 0.9960937,-0.035156 0.328125,0 0.6914063,0.035156 1.0195313,0.035156 0.046875,0 0.1757812,0 0.1757812,-0.1992187 0,-0.1054688 -0.09375,-0.1054688 -0.2578125,-0.1054688 -0.46875,0 -0.46875,-0.070312 -0.46875,-0.1640625 0,-0.070312 0.011719,-0.1289062 0.035156,-0.2226562 z m -2.7539062,4.18359374 c -0.5976563,0 -0.6445313,-0.7734375 -0.6445313,-0.93750004 0,-0.4804687 0.2929688,-1.5703125 0.4570313,-1.9804687 0.3164062,-0.7382813 0.8320312,-1.1601563 1.2421875,-1.1601563 0.6445312,0 0.7851562,0.8085938 0.7851562,0.8789063 0,0.058594 -0.5507812,2.2382812 -0.5742187,2.2734375 -0.1523438,0.28124999 -0.7148438,0.92578124 -1.265625,0.92578124 z m 0,0"
         style="fill:#000000;fill-opacity:1;fill-rule:nonzero;stroke:none" />
      <path
         id="path18"
         d="m 8.0454297,-0.73286719 c 0,-0.76171871 -0.09375,-1.31250001 -0.4101563,-1.80468751 -0.2226562,-0.3164062 -0.6445312,-0.5976562 -1.2070312,-0.5976562 -1.6171875,0 -1.6171875,1.8984375 -1.6171875,2.40234371 0,0.50390625 0,2.36718749 1.6171875,2.36718749 1.6171875,0 1.6171875,-1.86328124 1.6171875,-2.36718749 z M 6.4282422,1.4351016 c -0.3164063,0 -0.75,-0.1875 -0.890625,-0.76171879 -0.09375,-0.41015625 -0.09375,-0.984375 -0.09375,-1.5 0,-0.50390621 0,-1.03125001 0.1054687,-1.41796871 0.1523438,-0.5507813 0.5976563,-0.6914063 0.8789063,-0.6914063 0.375,0 0.7382812,0.2226563 0.8671875,0.6328125 0.1054687,0.375 0.1171875,0.8789063 0.1171875,1.47656251 0,0.515625 0,1.04296875 -0.09375,1.4765625 C 7.1782422,1.2827578 6.7094922,1.4351016 6.4282422,1.4351016 Z m 0,0"
         style="fill:#000000;fill-opacity:1;fill-rule:nonzero;stroke:none" />
    </g>
    <path
       id="path19"
       d="M 81.46635,665.76465 H 96.4105 V 680.7088 H 81.46635 Z"
       style="fill:#f2f2f2;fill-opacity:1;fill-rule:nonzero;stroke:#000000;stroke-width:0.85039;stroke-linecap:butt;stroke-linejoin:miter;stroke-miterlimit:10;stroke-dasharray:none;stroke-opacity:1"
       transform="matrix(1.3333333,0,0,-1.3333333,39.972,949.26133)" />
    <g
       id="g19"
       aria-label="q&#10;1"
       transform="matrix(1.3333333,0,0,1.3333333,152.61067,53.192)">
      <path
         id="path20"
         d="m 4.4990313,-4.2895078 c 0,-0.046875 -0.023437,-0.1054688 -0.09375,-0.1054688 -0.1171875,0 -0.515625,0.3984375 -0.6796875,0.6914063 -0.2226563,-0.5390625 -0.609375,-0.703125 -0.9257813,-0.703125 -1.171875,0 -2.40234375,1.4765625 -2.40234375,2.9179687 0,0.98437504 0.5859375,1.59375004 1.31250005,1.59375004 0.4335937,0 0.8203125,-0.234375 1.1835937,-0.59765625 -0.09375,0.3515625 -0.421875,1.69921871 -0.4570312,1.79296871 -0.082031,0.2695313 -0.1523438,0.3164063 -0.7148438,0.328125 -0.1289062,0 -0.2226562,0 -0.2226562,0.1992188 0,0 0,0.1054687 0.1289062,0.1054687 0.3164063,0 0.6679688,-0.035156 0.9960938,-0.035156 0.328125,0 0.6914062,0.035156 1.0195312,0.035156 0.046875,0 0.1757813,0 0.1757813,-0.1992187 0,-0.1054688 -0.09375,-0.1054688 -0.2578125,-0.1054688 -0.46875,0 -0.46875,-0.070312 -0.46875,-0.1640625 0,-0.070312 0.011719,-0.1289062 0.035156,-0.2226562 z M 1.745125,-0.10591406 c -0.5976562,0 -0.6445312,-0.7734375 -0.6445312,-0.93750004 0,-0.4804687 0.2929687,-1.5703125 0.4570312,-1.9804687 0.3164063,-0.7382813 0.8320313,-1.1601563 1.2421875,-1.1601563 0.6445313,0 0.7851563,0.8085938 0.7851563,0.8789063 0,0.058594 -0.5507813,2.2382812 -0.5742188,2.2734375 -0.1523437,0.28124999 -0.7148437,0.92578124 -1.265625,0.92578124 z m 0,0"
         style="fill:#000000;fill-opacity:1;fill-rule:nonzero;stroke:none" />
      <path
         id="path21"
         d="m 6.7783281,-2.9359922 c 0,-0.1875 -0.011719,-0.1992187 -0.2109375,-0.1992187 -0.4453125,0.4335937 -1.078125,0.4453125 -1.359375,0.4453125 v 0.2460937 c 0.1640625,0 0.6210938,0 1.0078125,-0.1875 v 3.55078126 c 0,0.23437504 0,0.32812504 -0.6914062,0.32812504 H 5.2548906 v 0.2460937 c 0.1289063,-0.011719 0.984375,-0.023437 1.2421875,-0.023437 0.2109375,0 1.0898438,0.011719 1.2421875,0.023437 V 1.2476016 H 7.4814531 c -0.703125,0 -0.703125,-0.09375 -0.703125,-0.32812504 z m 0,0"
         style="fill:#000000;fill-opacity:1;fill-rule:nonzero;stroke:none" />
    </g>
    <path
       id="path22"
       d="m 9.8915,673.40984 68.0796,-0.003"
       style="fill:none;stroke:#000000;stroke-width:1.41731;stroke-linecap:butt;stroke-linejoin:miter;stroke-miterlimit:10;stroke-dasharray:none;stroke-opacity:1"
       transform="matrix(1.3333333,0,0,-1.3333333,39.972,949.26133)" />
    <path
       id="path23"
       d="M -2.11246,2.81662 C -1.93642,1.76038 0,0.17603 0.5281,0 0,-0.17603 -1.93642,-1.76038 -2.11246,-2.81662"
       style="fill:none;stroke:#000000;stroke-width:1.13385;stroke-linecap:round;stroke-linejoin:round;stroke-miterlimit:10;stroke-dasharray:none;stroke-opacity:1"
       transform="matrix(1.3333067,2.6666667e-5,2.6666667e-5,-1.3333067,143.93344,51.384987)" />
    <path
       id="path24"
       d="M 79.25153,668.90012 C 55.20134,657.73132 33.75519,657.73344 10.69913,668.44315"
       style="fill:none;stroke:#000000;stroke-width:1.41731;stroke-linecap:butt;stroke-linejoin:miter;stroke-miterlimit:10;stroke-dasharray:none;stroke-opacity:1"
       transform="matrix(1.3333333,0,0,-1.3333333,39.972,949.26133)" />
    <path
       id="path25"
       d="M -2.11246,2.81662 C -1.93642,1.76038 0,0.17603 0.5281,0 0,-0.17603 -1.93642,-1.76038 -2.11246,-2.81662"
       style="fill:none;stroke:#000000;stroke-width:1.13385;stroke-linecap:round;stroke-linejoin:round;stroke-miterlimit:10;stroke-dasharray:none;stroke-opacity:1"
       transform="matrix(-1.2092,-0.56168,-0.56168,1.2092,54.23752,58.003827)" />
    <path
       id="path26"
       d="m -24.22661,673.25378 13.59458,0.11628"
       style="fill:none;stroke:#000000;stroke-width:0.85039;stroke-linecap:butt;stroke-linejoin:miter;stroke-miterlimit:10;stroke-dasharray:none;stroke-opacity:1"
       transform="matrix(1.3333333,0,0,-1.3333333,39.972,949.26133)" />
    <path
       id="path27"
       d="M -1.60222,2.13629 C -1.4687,1.33517 0,0.13351 0.40054,0 0,-0.13351 -1.4687,-1.33517 -1.60222,-2.13629"
       style="fill:none;stroke:#000000;stroke-width:0.68031;stroke-linecap:round;stroke-linejoin:round;stroke-miterlimit:10;stroke-dasharray:none;stroke-opacity:1"
       transform="matrix(1.3332267,-0.01137333,-0.01137333,-1.3332267,25.79596,51.434613)" />
    <path
       id="path28"
       d="m 35.09573,668.27605 v 0 0 z"
       style="fill:none;stroke:#ffffff;stroke-width:1;stroke-linecap:butt;stroke-linejoin:miter;stroke-miterlimit:10;stroke-dasharray:none;stroke-opacity:1"
       transform="matrix(1.3333333,0,0,-1.3333333,39.972,949.26133)" />
  </g>
</svg>
